<svg version="1.0" xmlns="http://www.w3.org/2000/svg" width="1048" height="1048" viewBox="3048 3048 14480 14480"><g id="lDRldGm9kQL48ejoQULKRq" fill="rgb(208,164,85)" style="transform: none;"><g style="transform: none;"><path id="pkdxuEmSV" d="M 12300 16033 c -96 -10 -255 -38 -339 -59 -503 -131 -993 -489 -1295 -948 -119 -181 -232 -441 -291 -671 -64 -248 -65 -277 -65 -1507 l 0 -1108 143 0 c 78 0 152 3 165 6 l 22 6 0 1070 c 0 1066 3 1169 36 1343 108 567 504 1084 1036 1351 178 89 362 147 568 179 88 13 185 15 590 13 484 -3 485 -3 528 -26 96 -51 160 -130 188 -231 16 -57 16 -64 -1 -126 -30 -111 -110 -197 -225 -241 -76 -29 -195 -104 -264 -166 -116 -105 -203 -250 -248 -413 -32 -118 -32 -355 0 -474 46 -171 125 -306 253 -433 60 -59 79 -85 85 -114 9 -50 -3 -235 -20 -308 -21 -87 -39 -105 -147 -146 -52 -20 -129 -55 -173 -79 -403 -223 -686 -684 -686 -1117 0 -99 -10 -94 181 -94 l 136 0 7 79 c 14 167 79 362 166 495 124 191 297 322 572 436 168 69 231 166 273 418 55 337 24 474 -151 664 -101 109 -147 186 -174 293 -48 188 0 379 128 517 55 58 78 73 219 143 134 67 166 88 223 144 357 353 175 994 -311 1096 -57 12 -164 15 -582 13 -282 0 -528 -3 -547 -5 z "></path><path id="pR3WXkDDX" d="M 11057 14263 c -18 -17 0 -74 77 -254 157 -363 404 -934 431 -996 l 28 -63 161 0 161 1 129 297 c 370 850 416 959 416 990 l 0 32 -159 0 c -115 0 -161 -3 -168 -12 -12 -16 -167 -380 -288 -681 -49 -119 -92 -214 -95 -210 -4 5 -22 46 -40 93 -51 130 -309 748 -326 781 l -15 29 -153 0 c -84 0 -156 -3 -159 -7 z "></path><path id="pkivJRs5T" d="M 6060 14087 l 0 -154 25 -11 c 19 -9 441 -12 1660 -12 l 1635 0 0 -580 0 -579 -157 -3 -158 -3 -3 -665 c -2 -469 0 -691 9 -755 44 -338 268 -620 591 -745 231 -89 537 -78 772 29 146 66 295 197 381 335 l 47 76 1399 0 1399 0 0 230 0 230 -1674 0 -1674 0 -7 -47 c -10 -70 -28 -107 -80 -162 -81 -86 -200 -115 -315 -76 -71 24 -159 109 -180 175 -12 38 -14 260 -15 1455 l 0 1410 -1827 3 -1828 2 0 -153 z "></path><path id="pOe4k6NgA" d="M 5060 10779 c -124 -20 -267 -124 -323 -235 -99 -195 -69 -411 78 -560 54 -55 157 -111 220 -121 55 -8 62 -16 69 -81 19 -163 51 -374 77 -516 28 -147 92 -436 105 -470 4 -11 -9 -16 -63 -20 -37 -4 -85 -10 -106 -14 l -39 -7 222 -225 c 196 -198 224 -223 231 -205 12 27 148 609 144 614 -2 2 -47 -20 -100 -49 -53 -28 -99 -49 -102 -46 -9 9 -70 275 -103 451 -26 137 -80 515 -80 561 0 8 12 19 28 25 137 52 234 146 277 269 9 25 23 51 32 58 20 15 279 17 288 2 3 -5 -2 -52 -11 -104 -9 -53 -14 -100 -12 -105 1 -5 123 60 270 146 147 86 265 160 263 164 -3 4 -105 67 -228 139 -122 73 -239 143 -259 156 -47 30 -60 30 -53 2 8 -34 35 -182 35 -191 0 -4 -68 -6 -152 -5 l -151 3 -21 60 c -30 85 -47 113 -108 174 -66 67 -167 117 -263 131 -80 11 -90 11 -165 -1 z "></path><path id="p1G34BD9yp" d="M 6850 10776 c -78 -17 -175 -72 -239 -135 -169 -169 -171 -456 -5 -640 l 55 -61 -286 -567 c -158 -313 -291 -572 -295 -577 -10 -10 -21 -3 -120 73 -35 28 -66 48 -68 46 -5 -5 28 -562 37 -602 l 6 -32 85 52 c 173 107 451 290 446 294 -2 2 -50 17 -107 32 -61 16 -104 33 -104 40 0 7 131 273 290 592 280 559 291 579 315 573 14 -3 26 -7 28 -9 2 -1 17 -56 33 -121 76 -299 159 -524 289 -785 71 -142 198 -360 257 -442 l 35 -47 -31 -74 c -65 -157 -64 -282 5 -419 108 -212 365 -313 580 -225 l 60 24 60 -54 c 129 -117 376 -297 574 -417 109 -67 427 -223 575 -283 278 -112 637 -205 956 -247 45 -6 46 -6 58 -55 16 -63 74 -153 135 -208 46 -43 155 -102 187 -102 9 0 20 -7 23 -16 3 -9 6 -173 6 -365 0 -337 -1 -349 -19 -349 -11 0 -55 7 -98 15 -43 8 -84 15 -91 15 -9 0 3 -31 33 -88 82 -152 259 -462 265 -462 9 0 52 71 187 310 110 192 130 236 116 238 -10 1 -60 -6 -110 -16 l -93 -19 0 367 0 368 46 11 c 136 34 257 151 306 296 19 56 -1 49 202 80 606 94 1253 368 1754 743 l 73 54 82 -41 c 164 -83 353 -68 495 40 l 53 39 57 -39 c 31 -21 150 -103 263 -183 l 206 -144 -75 -79 c -63 -67 -71 -80 -56 -85 11 -4 111 -12 224 -19 113 -6 247 -14 298 -17 l 93 -6 -115 228 c -63 126 -130 258 -149 293 l -35 64 -38 -102 c -22 -55 -44 -101 -50 -101 -7 0 -38 19 -70 43 -33 24 -144 101 -249 172 -104 71 -191 129 -193 131 -2 1 2 21 8 44 20 74 14 218 -11 286 -43 116 -135 226 -228 273 -120 62 -279 66 -437 13 -120 -41 -168 -69 -277 -167 -541 -481 -1181 -771 -1904 -860 l -53 -7 0 251 c 0 161 4 251 10 251 6 0 10 3 10 8 0 4 -151 7 -335 7 -184 0 -335 -3 -335 -7 0 -5 5 -8 10 -8 6 0 10 -90 10 -251 l 0 -250 -47 6 c -272 36 -516 92 -721 164 -268 95 -397 155 -627 292 -282 168 -472 317 -691 542 -383 392 -638 809 -809 1325 -50 151 -114 430 -130 568 -19 166 -34 224 -80 303 -102 174 -311 262 -515 217 z "></path><path id="p14DcigjHs" d="M 10760 10153 c 0 -104 -3 -212 -6 -240 l -7 -53 1387 0 c 1223 0 1387 2 1392 15 5 13 55 15 360 15 l 354 0 0 210 0 210 -305 0 c -264 0 -305 2 -305 15 0 13 -166 15 -1435 15 l -1435 0 0 -187 z "></path><path id="pElAyVn7L" d="M 6811 8241 c 10 -31 25 -76 33 -100 9 -24 14 -46 11 -49 -2 -3 -118 -24 -257 -48 -139 -24 -298 -52 -354 -62 l -101 -19 -23 51 c -28 61 -137 174 -198 205 -77 39 -158 54 -263 48 -85 -4 -104 -9 -169 -42 -292 -147 -360 -520 -136 -748 122 -124 311 -176 464 -128 l 60 18 61 -96 c 195 -314 467 -667 742 -962 l 109 -116 -92 -69 -92 -68 50 -13 c 56 -16 482 -118 533 -128 l 34 -7 -6 39 c -7 41 -163 573 -171 581 -6 5 -64 -85 -96 -148 l -23 -44 -106 109 c -256 265 -519 607 -735 955 -41 66 -44 76 -33 94 30 44 35 43 278 -61 129 -56 367 -156 529 -223 162 -67 324 -135 360 -150 36 -15 153 -65 260 -110 107 -46 199 -87 204 -91 6 -5 3 -16 -6 -26 -23 -26 -99 -165 -94 -170 4 -4 128 16 490 80 l 129 22 -108 135 c -60 74 -152 188 -206 252 l -97 117 -11 -75 c -6 -41 -11 -85 -11 -97 -1 -54 -9 -53 -186 21 -93 38 -241 100 -329 137 -88 36 -169 70 -180 75 -11 5 -69 30 -130 55 -60 25 -130 54 -155 65 -25 10 -101 42 -170 71 -430 178 -460 192 -460 214 0 11 4 25 8 31 4 5 86 22 182 38 96 15 257 42 358 60 163 29 184 30 191 17 5 -9 9 -59 10 -111 1 -52 3 -95 4 -96 3 -3 387 332 431 375 l 38 39 -83 32 c -114 44 -348 127 -435 154 l -71 23 18 -56 z "></path><path id="pSfnI4W0" d="M 13467 7368 c -52 -61 -274 -353 -311 -411 -9 -16 -15 -31 -13 -34 3 -2 51 1 107 7 55 7 104 9 107 6 4 -4 -6 -122 -21 -264 -15 -141 -42 -399 -61 -572 -18 -173 -37 -352 -41 -397 -6 -71 -9 -82 -28 -87 -11 -3 -23 -2 -27 2 -3 4 -52 123 -109 265 l -102 258 59 62 c 35 37 74 91 94 132 33 68 34 72 34 195 0 120 -1 128 -32 193 -20 43 -55 92 -94 132 -104 108 -220 152 -377 142 -238 -14 -432 -224 -432 -467 l 0 -55 -168 -64 c -92 -36 -205 -80 -251 -100 -96 -39 -98 -34 29 -103 41 -23 77 -42 79 -44 2 -2 -163 -204 -365 -450 -203 -246 -411 -498 -462 -561 -52 -63 -99 -112 -105 -109 -68 29 -127 38 -221 34 -91 -3 -108 -7 -170 -38 -221 -109 -325 -346 -251 -567 44 -131 122 -221 245 -283 230 -117 515 -18 633 219 20 40 37 82 37 91 0 10 6 22 13 27 6 5 84 17 172 27 213 23 523 77 720 125 88 22 163 36 166 33 3 -4 12 -47 19 -97 7 -49 16 -96 19 -103 5 -9 24 5 61 45 29 32 83 90 119 128 115 122 241 262 241 268 0 16 -585 155 -598 143 -3 -3 13 -45 36 -93 31 -64 39 -89 29 -94 -22 -12 -348 -87 -487 -113 -145 -27 -397 -63 -470 -68 l -45 -3 -18 49 c -10 27 -31 69 -47 93 -17 24 -30 49 -30 54 0 11 111 151 240 304 41 50 147 178 235 285 190 233 402 488 425 513 15 17 20 13 84 -68 37 -47 71 -85 76 -85 10 0 11 7 45 205 14 83 28 163 31 178 l 6 28 27 -39 c 81 -110 261 -189 417 -180 l 56 3 104 -259 c 57 -142 104 -263 104 -270 0 -6 -25 -36 -56 -66 -254 -251 -130 -693 221 -785 107 -27 220 -15 332 37 69 32 171 139 213 222 34 68 35 74 35 185 0 64 -4 128 -8 142 -8 26 -4 30 93 94 208 137 586 413 741 542 43 35 81 63 85 63 5 0 33 -44 63 -98 l 55 -97 12 30 c 16 41 138 423 163 513 18 66 18 72 3 72 -15 0 -369 -75 -530 -113 -29 -6 -54 -16 -54 -22 -1 -9 51 -55 127 -113 l 30 -22 -40 -35 c -132 -116 -595 -454 -779 -569 l -76 -48 -48 43 c -26 23 -75 55 -109 70 -58 27 -62 31 -58 56 6 32 107 953 125 1143 7 69 15 128 19 132 3 3 53 -7 110 -23 57 -16 105 -28 108 -26 2 2 -38 98 -88 213 -50 115 -105 242 -123 281 -17 40 -34 73 -38 73 -3 0 -31 -28 -61 -62 z "></path><path id="p1HTXyua56" d="M15800.920111804393 6766.3670957931076 C 15800.920111804393 7026.8768267155724 15589.73524858465 7238.0616899353167 15329.225517662184 7238.0616899353167 15068.715786739718 7238.0616899353167 14857.530923519975 7026.8768267155724 14857.530923519975 6766.3670957931076 14857.530923519975 6505.857364870643 15068.715786739718 6294.6725016508985 15329.225517662184 6294.6725016508985 15589.73524858465 6294.6725016508985 15800.920111804393 6505.857364870643 15800.920111804393 6766.3670957931076 Z M15236.0 7229.0 "></path><path id="p17BlaQ6SW" d="M 8529 7066 c -133 -54 -230 -152 -279 -281 -18 -48 -23 -80 -23 -160 -1 -99 4 -121 53 -240 l 12 -30 -193 -192 -193 -192 -25 18 c -63 43 -121 56 -251 56 -122 0 -127 -1 -192 -33 -153 -75 -240 -194 -268 -365 -43 -270 187 -537 465 -537 107 0 244 53 326 127 l 38 34 163 -85 c 287 -149 630 -291 953 -395 149 -48 540 -151 575 -151 44 -1 45 -15 5 -119 -21 -56 -35 -104 -33 -107 7 -6 571 205 585 220 4 4 -184 167 -407 354 l -75 63 -3 -112 -3 -111 -45 7 c -74 11 -337 79 -499 130 -187 58 -397 135 -584 214 -149 64 -494 230 -523 253 -14 11 -15 22 -5 83 12 84 -1 177 -37 258 l -24 54 199 199 198 198 39 -22 c 90 -50 216 -64 326 -36 67 17 165 66 191 94 15 17 33 1 298 -269 222 -225 441 -449 637 -651 3 -3 15 -17 28 -32 l 23 -26 -91 -63 -91 -62 31 -13 c 32 -14 490 -146 549 -159 l 33 -7 -7 43 c -15 88 -142 574 -150 574 -5 0 -36 -40 -69 -88 l -61 -88 -210 213 c -201 203 -479 488 -687 703 l -97 100 16 54 c 11 38 14 82 11 155 -3 92 -7 108 -40 179 -62 130 -170 221 -303 256 -22 6 -83 11 -135 11 -76 0 -106 -5 -151 -24 z "></path></g></g><g id="l5NAz7QwwYFyAMxTAP8IAwB" fill="rgb(109,19,73)" style="transform: none;"><g style="transform: none;"><path id="peLIb1qp" d="M 12500 15739 c -233 -7 -314 -17 -484 -63 -682 -187 -1238 -788 -1370 -1481 -33 -174 -36 -276 -36 -1360 l 0 -1085 790 0 790 0 0 68 c 0 227 100 508 253 716 163 220 364 374 606 466 108 41 126 59 147 146 17 69 30 314 20 368 -6 29 -25 55 -85 114 -128 128 -207 263 -252 433 -31 116 -31 299 0 414 44 163 130 308 247 413 69 62 188 137 264 166 183 69 278 254 224 436 -36 123 -143 224 -259 246 -50 9 -560 11 -855 3 z  m -1146 -1527 c 20 -39 233 -548 318 -762 38 -96 73 -179 77 -183 5 -4 54 106 111 245 155 381 291 701 305 716 8 9 45 12 138 10 l 126 -3 -143 -330 c -78 -181 -201 -464 -272 -627 l -129 -297 -131 -1 -131 0 -91 208 c -84 194 -337 778 -415 959 -19 45 -32 84 -29 87 3 3 61 6 128 6 l 123 0 15 -28 z "></path><path id="pqvo7Ghn1" d="M 6076 13931 c 12 -12 433 -291 914 -606 217 -142 513 -337 658 -433 l 262 -174 0 -39 c 0 -32 3 -39 20 -39 13 0 20 7 20 19 0 18 14 19 383 17 587 -1 755 4 759 23 4 19 -6 18 176 19 l 142 2 0 610 0 610 -1672 0 c -971 0 -1668 -4 -1662 -9 z "></path><path id="px8E2nNJf" d="M 10793 10987 l -40 -63 -7 -222 c -4 -122 -4 -276 0 -342 6 -108 9 -120 25 -120 15 0 19 8 19 35 l 0 35 1420 0 c 781 0 1420 3 1420 8 0 4 7 61 15 127 10 76 15 207 15 362 l 0 243 -1414 0 -1414 0 -39 -63 z "></path><path id="p1GPfv7ebZ" d="M 7920 10585 c 0 -28 4 -35 20 -35 16 0 20 7 20 35 0 28 -4 35 -20 35 -16 0 -20 -7 -20 -35 z "></path><path id="prqCnciCr" d="M 10750 8926 c 0 -563 -3 -1038 -6 -1055 l -6 -31 104 0 c 193 0 472 39 684 95 365 96 797 322 1089 568 397 335 711 788 875 1262 22 65 40 119 40 121 0 2 -618 4 -1373 4 l -1374 0 5 30 c 4 25 1 30 -17 30 l -21 0 0 -1024 z "></path></g></g><g id="l5M3Ha7epFuaTkDKT1WIGEh" fill="rgb(136,36,91)" style="transform: none;"><g style="transform: none;"><path id="pokEVdE6q" d="M 8917 12714 c -3 -4 -231 -7 -504 -8 l -498 -1 1 -1045 c 0 -1154 0 -1105 14 -1245 29 -277 107 -575 217 -823 157 -356 351 -640 618 -907 342 -343 697 -557 1178 -714 230 -75 493 -121 700 -124 l 132 -2 3 1009 c 2 793 5 1012 15 1018 8 5 8 11 2 16 -11 8 -15 221 -15 752 l 0 315 -37 -45 c -177 -218 -414 -342 -683 -357 -476 -26 -897 325 -959 802 -9 63 -11 277 -9 725 l 3 635 -85 3 c -47 2 -89 0 -93 -4 z "></path></g></g></svg>